<?xml version="1.0" encoding="utf-8"?>
<!-- Generator: Adobe Illustrator 18.0.0, SVG Export Plug-In . SVG Version: 6.00 Build 0)  -->
<!DOCTYPE svg PUBLIC "-//W3C//DTD SVG 1.1//EN" "http://www.w3.org/Graphics/SVG/1.1/DTD/svg11.dtd">
<svg version="1.1" xmlns="http://www.w3.org/2000/svg" xmlns:xlink="http://www.w3.org/1999/xlink" x="0px" y="0px"
	 viewBox="0 0 44 33.1" enable-background="new 0 0 44 33.1" xml:space="preserve">
<g id="Layer_4" display="none">
	<rect y="-5.4" display="inline" fill="#EFEFEF" width="44" height="44"/>
</g>
<g id="Layer_3">
	<path fill="#010202" d="M0,10.4c0,2,0.9,3.9,2.3,5.5c0,0,0,0,0,0L2,22.5c0,0.2,0.1,0.4,0.3,0.5c0.1,0.1,0.2,0.1,0.4,0.1h0
		c0.1,0,0.2,0,0.3,0l5.5-3.3c0,0,0,0,0,0c0,0,0,0,0,0c1.1,0.4,2.4,0.7,3.7,0.9c0.4,0.1,0.9,0.1,1.3,0.1c0.6,0,1.2,0.1,1.8,0.1
		c2.9,0,5.5-0.5,7.8-1.5c0.8-0.3,1.5-0.7,2.1-1.1c0.2-0.1,0.5-0.3,0.7-0.4c0.4-0.3,0.8-0.6,1.2-0.9c0.5-0.4,1-0.9,1.4-1.4
		c1.3-1.5,2-3.3,2-5.1c0-0.1,0-0.3,0-0.4c-0.3-5.6-7-10-15.3-10C11.3,0,7.7,1,5,2.7C4.1,3.3,3.3,3.9,2.6,4.6C1.9,5.3,1.3,6.1,0.9,7
		C0.3,8.1,0,9.2,0,10.4z"/>
	<path fill="#010202" d="M33.3,10.4c0,7.4-7.9,13.2-18.1,13.2c-0.4,0-0.7,0-1.1,0c2,4.2,7.7,7.2,14.5,7.2c2.4,0,4.7-0.4,6.8-1.1
		c0,0,0.1,0,0.1,0.1l5.5,3.3c0.1,0,0.2,0,0.3,0c0.1,0,0.3,0,0.4-0.1c0.2-0.1,0.3-0.3,0.3-0.5l-0.4-6.5c0,0,0,0,0,0
		c1.5-1.6,2.3-3.5,2.3-5.5C44,15.7,39.5,11.8,33.3,10.4z"/>
</g>
<g id="Layer_2" display="none">
	<g display="inline">
		<path d="M60.9-22.3v77.8h-77.8v-77.8H60.9 M62-23.4h-80v80h80V-23.4L62-23.4z"/>
	</g>
</g>
</svg>
